<svg id="Capa_1" data-name="Capa 1" xmlns="http://www.w3.org/2000/svg" viewBox="0 0 218.75 284.05"><defs><style>.cls-1{fill:#fff;}</style></defs><path class="cls-1" d="M252,254.48a47.56,47.56,0,0,0-31.87,26.67,47.56,47.56,0,0,0-31.88-26.67,47.72,47.72,0,0,0,31.88-26.71A47.72,47.72,0,0,0,252,254.48Z" transform="translate(-188.26 -227.66)"/><path class="cls-1" d="M197.29,331.91c-.06-14.56,7.16-26.84,22.36-29.41,30.79-5.22,47.82-21.57,53.67-52.34,2.85-15,14.45-22,28.35-22.48,13.34-.44,22.77,6.11,28.73,20.64,2.94,7.15,5.06,14.64,7.65,21.95,4.55,12.85,13.33,21.3,26.46,25.13,6.42,1.87,12.94,3.46,19.26,5.63,16.93,5.8,24.68,18.13,22.14,34.76-2.05,13.47-13.68,23.9-27.65,24.81-16.1,1-27.28-7.57-31.24-25.22-2.77-12.33-6.84-23.59-16.64-32.19-13.15-11.56-31.18-13.73-47.28-5.46-15.15,7.77-23.25,22.16-21.58,39,1.5,15.12,9.61,25.27,23.87,30.6,10.53,3.93,21.71,6.81,31.31,12.38,15,8.7,18.74,27.36,10,41.46-8.59,13.9-27,19.33-40.47,10.12-6.07-4.14-12-11.83-13.43-18.84-5.54-26.84-20.26-42.79-47.29-49C205,358.71,197.36,348.66,197.29,331.91Z" transform="translate(-188.26 -227.66)"/><path class="cls-1" d="M344.86,407.38c-.55-19.42-10.71-32.31-27.93-39.88-7.38-3.24-15.33-5.15-23-7.83-13.63-4.78-19.27-12.69-18.68-25.91.54-12,9.54-22.76,21.52-25.77,13.4-3.37,26.26,1.07,32.05,12.12,3.4,6.48,5.51,13.69,7.76,20.71,5.6,17.46,16.24,29.33,34.85,33.07a99.09,99.09,0,0,1,14.21,4c13.64,4.95,21.42,15.92,21.33,29.59S398.8,432.35,385.44,437a101,101,0,0,1-14.25,4c-18.84,3.57-30.86,14.39-36.07,32.87C333.4,480,331.57,486,329.49,492c-4,11.38-12,18-24,19.43-12.41,1.47-22.46-3-28.67-13.76a86.25,86.25,0,0,1-8-20.54c-5.26-19.54-17.71-31.5-36.91-36.91-4.07-1.15-8.14-2.28-12.2-3.48-16-4.72-23.72-16-22.06-32.39,1.42-13.88,13.12-25.17,27.39-26.42,14.53-1.27,28.38,8.79,32.63,23.12,2.9,9.72,5.36,19.85,10.05,28.71,8.52,16.09,28.89,23.49,46.5,18.46C332.54,443,345.25,426.06,344.86,407.38Z" transform="translate(-188.26 -227.66)"/></svg>