<svg xmlns="http://www.w3.org/2000/svg" viewBox="0 0 176.09 228.66"><defs><style>.cls-1{fill:#222b54;}</style></defs><g id="Capa_2" data-name="Capa 2"><g id="Capa_1-2" data-name="Capa 1"><path class="cls-1" d="M51.32,21.6A38.25,38.25,0,0,0,25.66,43.06,38.27,38.27,0,0,0,0,21.6,38.47,38.47,0,0,0,25.66.09,38.44,38.44,0,0,0,51.32,21.6Z"/><path class="cls-1" d="M7.27,83.92c0-11.72,5.76-21.6,18-23.67,24.78-4.2,38.49-17.37,43.2-42.14C70.76,6,80.1.39,91.3,0,102-.34,109.62,4.94,114.42,16.63c2.37,5.76,4.07,11.79,6.15,17.67,3.67,10.34,10.73,17.15,21.31,20.23,5.17,1.51,10.41,2.79,15.5,4.53,13.63,4.67,19.87,14.6,17.83,28A24,24,0,0,1,153,107c-13,.84-22-6.09-25.15-20.29-2.23-9.93-5.51-19-13.4-25.92-10.58-9.3-25.1-11-38.06-4.4C64.15,62.66,57.63,74.24,59,87.82c1.21,12.18,7.74,20.35,19.22,24.64,8.47,3.16,17.47,5.48,25.2,10,12.06,7,15.09,22,8.07,33.38C104.55,167,89.75,171.36,78.89,164c-4.89-3.34-9.65-9.53-10.81-15.17C63.62,127.17,51.77,114.33,30,109.31,13.45,105.5,7.33,97.41,7.27,83.92Z"/><path class="cls-1" d="M126.06,144.67c-.44-15.63-8.62-26-22.49-32.1-5.93-2.61-12.33-4.15-18.48-6.3-11-3.85-15.51-10.22-15-20.86.43-9.65,7.67-18.32,17.32-20.75,10.78-2.71,21.14.87,25.8,9.76,2.74,5.22,4.44,11,6.25,16.68,4.5,14.05,13.07,23.61,28,26.62A80.08,80.08,0,0,1,158.92,121c11,4,17.24,12.81,17.17,23.82s-6.61,20-17.37,23.76a80.24,80.24,0,0,1-11.47,3.18c-15.16,2.87-24.84,11.59-29,26.46-1.39,4.91-2.86,9.8-4.53,14.62C110.5,222,104,227.29,94.36,228.44c-10,1.18-18.08-2.42-23.08-11.08a69.37,69.37,0,0,1-6.47-16.53c-4.24-15.73-14.26-25.36-29.71-29.71-3.28-.92-6.56-1.84-9.82-2.8-12.9-3.81-19.1-12.92-17.76-26.08C8.66,131.07,18.08,122,29.57,121c11.69-1,22.84,7.07,26.27,18.6,2.32,7.83,4.3,16,8.08,23.12,6.86,13,23.26,18.91,37.44,14.86A33.86,33.86,0,0,0,126.06,144.67Z"/></g></g></svg>