<svg id="Capa_1" data-name="Capa 1" xmlns="http://www.w3.org/2000/svg" viewBox="0 0 500.02 194.03"><defs><style>.cls-1{fill:#fff;}</style></defs><path class="cls-1" d="M258.05,447.65l3.2-3.41a27.84,27.84,0,0,0,20.87,9.61c10.86,0,17.7-5.81,17.7-14.29,0-8.88-5.79-11.71-12.8-14.86l-10.78-4.83c-6.2-2.73-14.43-7.16-14.43-17.69,0-10.33,8.85-17.53,20.68-17.53a27.19,27.19,0,0,1,19.81,8.52l-2.87,3.3a22.64,22.64,0,0,0-16.94-7.31c-9.39,0-15.69,5-15.69,12.72,0,8.3,7.1,11.43,12.3,13.71l10.76,4.81c8,3.55,15,7.94,15,18.82s-9,19.14-22.75,19.14A31.29,31.29,0,0,1,258.05,447.65Z" transform="translate(-60.82 -320.96)"/><path class="cls-1" d="M319.77,386h5v71.12h-5Z" transform="translate(-60.82 -320.96)"/><path class="cls-1" d="M345.67,386h16.45c21.95,0,32.35,13.81,32.35,35.33s-10.4,35.79-32.24,35.79H345.67Zm15.95,66.91c19.28,0,27.65-13,27.65-31.58s-8.37-31.12-27.65-31.12h-11v62.7Z" transform="translate(-60.82 -320.96)"/><path class="cls-1" d="M410.86,386h38.92v4.27h-34v26.94h28.52v4.27H415.82V452.8h35v4.27h-40Z" transform="translate(-60.82 -320.96)"/><path class="cls-1" d="M481.88,386h5l25.06,71.12h-5.27l-14.2-41.88c-2.89-8.44-5.4-15.89-7.9-24.56h-.43c-2.48,8.68-5,16.12-7.88,24.56l-14.4,41.88h-5ZM468.25,428.5h31.9v4.16h-31.9Z" transform="translate(-60.82 -320.96)"/><path class="cls-1" d="M523.1,386h5V452.8h32.76v4.27H523.1Z" transform="translate(-60.82 -320.96)"/><path class="cls-1" d="M104.36,339.29A32.46,32.46,0,0,0,82.59,357.5a32.46,32.46,0,0,0-21.77-18.21A32.64,32.64,0,0,0,82.59,321,32.64,32.64,0,0,0,104.36,339.29Z" transform="translate(-60.82 -320.96)"/><path class="cls-1" d="M67,392.17c0-9.94,4.89-18.33,15.27-20.09,21-3.56,32.66-14.73,36.66-35.75,2-10.26,9.87-15,19.37-15.35,9.11-.31,15.55,4.17,19.62,14.09,2,4.89,3.45,10,5.22,15,3.11,8.77,9.11,14.55,18.08,17.16,4.39,1.28,8.84,2.37,13.15,3.85,11.57,4,16.86,12.38,15.13,23.74a20.38,20.38,0,0,1-18.89,16.95c-11,.71-18.63-5.17-21.34-17.22-1.89-8.42-4.67-16.12-11.36-22-9-7.89-21.3-9.37-32.3-3.73-10.35,5.31-15.88,15.14-14.74,26.67,1,10.33,6.56,17.26,16.31,20.9,7.19,2.68,14.82,4.65,21.38,8.46,10.23,5.94,12.8,18.69,6.85,28.32s-18.42,13.2-27.64,6.91c-4.15-2.83-8.19-8.08-9.18-12.87-3.78-18.34-13.84-29.23-32.3-33.49C72.23,410.48,67,403.62,67,392.17Z" transform="translate(-60.82 -320.96)"/><path class="cls-1" d="M167.79,443.73c-.38-13.27-7.32-22.08-19.09-27.25-5-2.21-10.46-3.52-15.68-5.34-9.3-3.27-13.16-8.67-12.75-17.7A19.51,19.51,0,0,1,135,375.83c9.16-2.3,17.94.74,21.9,8.28,2.32,4.43,3.76,9.36,5.3,14.15,3.82,11.92,11.09,20,23.8,22.59a68.37,68.37,0,0,1,9.71,2.75c9.32,3.38,14.63,10.87,14.57,20.21s-5.61,17-14.74,20.17a68.44,68.44,0,0,1-9.73,2.7c-12.86,2.43-21.08,9.83-24.64,22.45-1.17,4.17-2.42,8.32-3.84,12.4-2.71,7.78-8.19,12.3-16.4,13.27-8.48,1-15.35-2-19.59-9.39a59.39,59.39,0,0,1-5.49-14c-3.59-13.35-12.1-21.52-25.21-25.21-2.78-.79-5.56-1.56-8.33-2.38-11-3.23-16.21-11-15.07-22.13a20.6,20.6,0,0,1,18.71-18c9.92-.87,19.38,6,22.29,15.79,2,6.64,3.65,13.56,6.86,19.61,5.82,11,19.73,16.05,31.76,12.61A28.73,28.73,0,0,0,167.79,443.73Z" transform="translate(-60.82 -320.96)"/></svg>